<svg xmlns="http://www.w3.org/2000/svg" viewBox="0 0 231 231">
	<path d="M33.83,33.83a115.5,115.5,0,1,1,0,163.34,115.49,115.49,0,0,1,0-163.34Z" style="fill:#0df;" />
	<path
		d="m115.5 51.75a63.75 63.75 0 0 0-10.5 126.63v14.09a115.5 115.5 0 0 0-53.729 19.027 115.5 115.5 0 0 0 128.46 0 115.5 115.5 0 0 0-53.729-19.029v-14.084a63.75 63.75 0 0 0 53.25-62.881 63.75 63.75 0 0 0-63.65-63.75 63.75 63.75 0 0 0-0.09961 0z"
		style="fill:#ef9831;" />
	<path
		d="m141.89 195a114.79 114.79 0 0 1 38 16.5 115.55 115.55 0 0 1-128.47 0 114.79 114.79 0 0 1 38-16.5l15.75 15.75h21z"
		style="fill:#571e57;" />
	<path
		d="m146.4 196.14-17.4 17.44-1.17 1.17h-24.34l-1.18-1.17-17.43-17.44c1.49-0.41 3-0.79 4.51-1.14l4.67-1 12.74 12.74h17.69l12.73-12.74 4.67 1c1.52 0.35 3 0.73 4.51 1.14z"
		style="fill:#ff0;" />
	<path
		d="m108.37 22.019c-6.2698-12.829-17.151-13.396-18.949 1.1769-11.448-9.4583-26.021-4.483-20.361 12.422-12.251-7.9282-24.919 1.7761-17.076 20.853-27.08 2.3646-22.715 24.726-10.111 31.435-9.9002 3.3566-10.701 9.4006-8.464 14.497 2.6574 4.7842 9.0126 6.4737 11.545 9.6519-6.624 0.59419-8.4112 5.6011-5.7404 9.5192 1.6896 2.4787 5.2756 4.2218 8.5971 5.5455 1.0485 0.40658 3.702 1.2732 3.9053 2.4181 0.18744 1.2156-6.7884 3.0055-5.7281 5.2612 0.60648 1.4227 1.7764 2.7151 2.6466 3.7156 1.2807 1.6595 10.755 8.0351 9.4583 4.2049-1.0271-3.7234-2.2148-7.4682-3.1456-11.192-1.1662-5.3069-1.7868-10.721-1.102-16.156 1.4223-5.455 5.069-4.4265 7.7837-8.3588 3.5264-5.7505 2.0296-11.614 2.124-13.575 0.107-1.7868 1.5407-1.1876 3.1884-1.4337 4.3868-0.64196 7.0081-2.1185 8.8377-6.2698 0.77035-1.9259 0.62057-9.7578 0.52426-11.78 0.36378-4.6328 4.1835 0 6.548 0.64196 3.2633 0.88805 6.8797 0.21399 9.0731-2.5037 1.7547-2.3753 2.0864-2.8888 4.6114-0.80245 2.6856 2.2148 4.0979 3.1349 7.6929 3.274 5.5637 0.20329 8.7735-6.2698 11.32-5.6386 3.5201 0.87735 3.6057 5.4567 10.261 4.8682 2.386-0.20329 3.8304-0.86665 5.4032-2.6428 0.88805-0.99505 1.958-2.5037 3.4345-2.6214 1.4658-0.1177 2.3218 2.3646 3.0065 3.4452 1.1926 2.6755 4.0295 3.6513 6.2377 3.3168 1.958-0.17119 3.854-1.4115 5.4268-2.4707 0.99679-0.66102 1.8284-0.81128 1.9256 0.2071 0.29592 2.2271 0.0862 7.7025 0.1596 8.4821 0.10556 8.4609 5.37 10.569 13.223 10.333-0.31871 3.7464 0.0583 11.28 5.4353 14.562 3.9481 2.7604 6.6657 1.2732 6.7299 7.8534 7e-3 6.1914-0.43693 13.061-1.2946 18.189-0.69547 4.0444-1.2412 6.4838-2.5251 10.378-0.64196 1.9152-0.81315 1.9687 1.4123 1.0699 7.1472-3.1456 10.539-11.48 8.3562-18.842-0.43869-2.0436 0.84525-1.7226 2.8781-2.6106 9.5248-4.2363 8.1264-11.335-0.75967-14.273 11.988-3.0926 13.886-8.9002 6.6871-15.375 7.3077-5.9168 3.6378-16.177-2.8032-16.991 12.422-7.0937 5.7349-22.062-5.1036-18.499 4.1728-12.037-5.5637-26.203-21.121-16.894 6.9653-11.373 2.065-22.661-12.101-10.785-3.4559-18.382-15.14-16.584-23.902-5.018 0.09435-20.075-16.001-17.42-18.146-2.5892z"
		style="fill:#000;" />
	<path
		d="m5.4353 80.502c7.4468 9.1373 15.632 8.8912 15.632 8.8912s-6.0772 3.7983-6.8369 9.8755c-0.75966 6.088 4.5579 9.6295 8.0994 10.646 3.5522 1.0058 7.0937-2.7925 7.0937-2.7925s-5.8312 10.646-1.5193 15.964c4.3012 5.3176 11.908 3.0386 11.908 3.0386s-5.3283 10.132 1.0057 14.187c5.8312 3.7234 18.542 7.6715 20.511 8.2706-6.0666-9.7472-9.576-21.249-9.576-33.575v-0.0428c0-35.201 28.546-63.747 63.747-63.747 35.212 0 63.758 28.546 63.758 63.747 0 12.476-3.5843 24.116-9.7899 33.949h0.53496s13.931-1.0057 16.21-9.3727c2.279-8.3562 0.75967-9.8756 0.75967-9.8756s10.635 2.0329 13.417-7.5966l2.7926-9.6295s10.132 0 10.892-7.083c0.75963-7.0937-7.0295-12.411-7.0295-12.411s11.459 0.82385 14.498-10.453c1.0164-3.7555 0.83456-8.2171 0.1391-12.497-17.665-41.161-58.569-69.995-106.18-69.995-30.632 0-60.034 12.187-81.679 33.831v0.0107c-13.171 13.171-22.833 29.22-28.386 46.66z"
		style="fill:#000;" />
	<path
		d="m172.7 90.75h-6.54c-0.14-0.1-0.26-0.22-0.4-0.3-4.48-2.76-22.75-2.11-33.71 1.2-1 0.3-1.91 0.61-2.75 0.94-1.8937 0.79244-3.8739 1.3597-5.9 1.69-5.5051 0.79002-10.403 0.79002-15.908 0-2.0261-0.33034-4.0063-0.89756-5.9-1.69-0.84-0.33-1.76-0.64-2.75-0.94-11-3.31-29.23-4-33.71-1.2-0.13832 0.08869-0.2688 0.18906-0.39 0.3h-6.55c-1.1046 0-2 0.89543-2 2v4.66c-0.0013 0.98185 0.49088 1.8986 1.31 2.44l1.9 1.27c0.59238 0.38889 0.93475 1.0622 0.9 1.77-0.14175 5.4854 0.88072 10.939 3 16 3.58 8.38 16 10.9 24.93 10.9 2.6976 0.0771 5.3921-0.2361 8-0.93 4.35-1.43 8.24-7.36 10.45-12.42 1.7607-3.8506 2.7493-8.009 2.91-12.24 7.3e-4 -0.7138 0.38183-1.3731 1-1.73 3.2281-1.951 6.5798-1.951 9.8079 0 0.61817 0.3569 0.99927 1.0162 1 1.73 0.16067 4.231 1.1493 8.3894 2.91 12.24 2.21 5.06 6.1 11 10.45 12.42 2.6079 0.6939 5.3024 1.0071 8 0.93 8.92 0 21.35-2.52 24.93-10.9 2.1193-5.0614 3.1418-10.515 3-16-0.0348-0.70778 0.30762-1.3811 0.9-1.77l1.9-1.27c0.81913-0.54136 1.3113-1.4582 1.31-2.44v-4.6c0.0336-1.1048-0.83521-2.0274-1.94-2.06z"
		style="fill:#000;stroke-linecap:round;stroke-linejoin:round;stroke-width:2.5;stroke:#00ffdc;" />
	<path
		d="m94.19 136.84h42.632a3.7801 3.78 0 0 1 3.7802 3.78v3.22a15.231 15.23 0 0 1-15.211 15.16h-19.781a15.251 15.25 0 0 1-15.221-15.16v-3.22a3.8002 3.8 0 0 1 3.7802-3.78z"
		style="fill:#fff;stroke-linecap:round;stroke-linejoin:round;stroke-width:3px;stroke:#000;" />
	<path d="m130.96 136.84v21.16m-30.911-21.16v21.16m10.34-21.16v22.16m10.31-22.2v22.2"
		style="fill:none;stroke-linecap:round;stroke-linejoin:round;stroke-width:3px;stroke:#000;" /></svg>