<svg xmlns="http://www.w3.org/2000/svg" viewBox="0 0 231 231">
	<path d="M33.83,33.83a115.5,115.5,0,1,1,0,163.34,115.49,115.49,0,0,1,0-163.34Z" style="fill:#FF9800;" />
	<path
		d="m115.5 51.75a63.75 63.75 0 0 0-10.5 126.63v14.09a115.5 115.5 0 0 0-53.729 19.027 115.5 115.5 0 0 0 128.46 0 115.5 115.5 0 0 0-53.729-19.029v-14.084a63.75 63.75 0 0 0 53.25-62.881 63.75 63.75 0 0 0-63.65-63.75 63.75 63.75 0 0 0-0.09961 0z"
		style="fill:#b96438;" />
	<path
		d="m141.75 194.98a114.79 114.78 0 0 1 38 16.498 115.53 115.52 0 0 1-128.46 0 114.79 114.78 0 0 1 38-16.498l15.71 15.748h21z"
		style="fill:#c7d4e2;" />
	<path
		d="m70 200.88v20.77c-2.22-0.95325-4.3999-1.9698-6.5399-3.0496h-0.10088v-14.621c2.17-1.1 4.39-2.1399 6.64-3.0996z"
		style="fill:#435363;" />
	<path
		d="m161 200.88v20.77c1.9-0.80986 3.7702-1.6798 5.6201-2.5898l0.0989-0.0494 0.82005-0.40997h0.10088v-14.621c-2.17-1.1-4.39-2.1399-6.6402-3.0996z"
		style="fill:#435363;" />
	<polygon transform="matrix(1 0 0 .99987 4e-5 -3e-5)" points="97.32 201.93 115.5 223.72 133.68 201.93"
		style="fill:#141720;" />
	<path
		d="m111.2 230.88 1.31-16.908c0.32992 1.2798 5.6399 1.2798 5.9999 0l1.3201 16.938c-1.4301 0.0494-2.8601 0.089-4.3 0.089s-2.87 0-4.3-0.089z"
		style="fill:#141720;" />
	<path
		d="m115.49 201.79v0.0692l-7.55 12.678-7.0001 11.809-19.19-26.487c0.60999-0.42995 1.22-0.89985 1.8001-1.3899a52 51.993 0 0 0 10.07-10.619l21.79 13.878z"
		style="fill:#e7ecf2;" />
	<path
		d="m149.24 199.86-19.08 26.517-7.0001-11.809-7.57-12.678-0.0593-0.10086 21.94-13.998a52.21 52.203 0 0 0 10.08 10.699c0.58013 0.47009 1.1502 0.92002 1.7301 1.3399z"
		style="fill:#e7ecf2;" />
	<path
		d="m41.668 87.073c-9.2319-0.0231-11.63 6.5104 2.2676 17.66-14.015 1.1231-4.3662 16.457 4.875 24.66 4.0686 3.0199 6.4647 5.4657 5.5078 1.1348-1.2079-4.9178-1.8184-9.9634-1.8184-15.027 3.26e-4 -7.5692 1.2547-15.016 3.7883-22.183 0.57048-1.7876 1.0689-2.0306-0.37721-2.6839-5.5405-2.4478-10.375-3.5511-14.243-3.5608z"
		style="fill:none;" />
	<path
		d="m185.48 89.513c-2.4418-0.11189-5.4618 0.81187-9.5148 3.2121-1.314 0.81729-0.70075 1.995-0.32301 3.2653 3.194 10.982 3.8215 22.462 1.2538 33.628-0.31613 1.688-0.47649 3.569 2.6953 1.3516 7.7016-5.371 19.17-18.734 16.918-26.105-1.4251-3.9177-11.4-0.35546-11.4-0.35546s4.987-4.2755 5.3437-9.6191c0.20048-3.0057-1.5237-5.2189-4.9726-5.377z"
		style="fill:none;" />
	<path
		d="m91.689 36.108c-3.7298-7.3864-9.5859-10.504-17.578-6.7891-9.5194 4.5907-15.629 18.444-13.416 29.232 0 0-8.5511-4.9878-18.17-3.5625-19.623 8.094-1.4102 29.869 10.817 37.342 2.075 1.297 2.5792 1.7432 3.4291-0.37685 2.6746-6.5374 6.1886-12.722 11.297-17.709 4.1039 8.7427 14.629 4.1809 20.006-0.14062 4.4873 9.6838 10.377 6.3535 15.377 3.4785 4.0764 7.8829 10.756 7.25 17.631 0.0625 4.875 4.5625 14.713 4.1867 15.555-3.426 8.4753 2.6244 14.012 10.437 22.962-1.4764 8.8552 6.8221 14.407 16.853 17.122 27.51 0.34 1.554 1.175 0.85565 2.2212 0.44315 10.255-4.286 22.842-15.749 15.705-23.975-3.5623-3.5623-13.539-2.1387-13.539-2.1387s6.77-7.1233 9.2637-18.168c2.4936-11.043-23.514-4.9883-23.514-4.9883s7.4818-5.6993 12.113-13.537c4.6314-7.8378-2.4943-11.756-11.045-11.043-8.5496 0.71204-17.1 7.4805-17.1 7.4805s3.3946-7.8055-3.5625-12.826c-9.5935-6.9234-23.869 6.4121-23.869 6.4121-4.2562-26.835-24.872-6.386-31.707 8.1953z"
		style="fill:#633b1d;" />
	<path
		d="m83.739 83.92h63.533a19.101 19.1 0 0 1 19.051 19 19.111 19.11 0 0 1-19.051 19h-63.533a19.091 19.09 0 0 1-19.001-19 19.091 19.09 0 0 1 19.001-19z"
		style="fill:#000;" />
	<path
		d="m140.23 93.54a9.3804 9.38 0 1 0 9.3804 9.38 9.3804 9.38 0 0 0-9.3804-9.38zm-49.402 0a9.3804 9.38 0 1 0 9.3804 9.38 9.3904 9.39 0 0 0-9.3804-9.38z"
		style="fill:none;" />
	<rect x="79.795" y="98.627" width="71.471" height="8.5859" ry="4.2929" style="fill:#00FFFF;" />
	<path d="m100.19 152.09c2.8726 4.0616 9.8095 4.7232 15.119-0.45432 5.0656 4.5134 11.167 5.6898 15.495 0.31458"
		style="fill:none;stroke-linecap:round;stroke-linejoin:round;stroke-width:5.8949;stroke:#111;" />
	<path
		d="m109.67 135.53c-0.9758 0.0743-2.05 0.45327-3.1485 0.99414-4.3235 2.1399-7.3862 4.2557-10.639 7.1406-0.6251 0.5715 0.1168 0.77785 1.4238 0.87304 5.6967 0.0536 14.384 0.41404 15.098-0.875 1.9251-2.0788 1.7969-5.3303-0.1816-7.3008-0.701-0.67533-1.5769-0.90632-2.5527-0.83203zm11.656 0c-0.9758-0.0743-1.8517 0.1567-2.5527 0.83203-1.9785 1.9705-2.1067 5.222-0.1817 7.3008 0.7142 1.289 9.401 0.9286 15.098 0.875 1.307-0.0952 2.0489-0.30154 1.4238-0.87304-3.2524-2.8849-6.3151-5.0007-10.639-7.1406-1.0985-0.54087-2.1727-0.91985-3.1485-0.99414z"
		style="fill:none;" /></svg>